{
    "asset" : {
        "generator" : "Khronos glTF Blender I/O v1.3.48",
        "version" : "2.0"
    },
    "scene" : 0,
    "scenes" : [
        {
            "name" : "Scene",
            "nodes" : [
                0
            ]
        }
    ],
    "nodes" : [
        {
            "mesh" : 0,
            "name" : "Plane"
        }
    ],
    "materials" : [
        {
            "doubleSided" : true,
            "name" : "3",
            "pbrMetallicRoughness" : {}
        },
        {
            "doubleSided" : true,
            "name" : "4",
            "pbrMetallicRoughness" : {}
        },
        {
            "doubleSided" : true,
            "name" : "2",
            "pbrMetallicRoughness" : {}
        },
        {
            "doubleSided" : true,
            "name" : "1",
            "pbrMetallicRoughness" : {}
        }
    ],
    "meshes" : [
        {
            "name" : "Plane",
            "primitives" : [
                {
                    "attributes" : {
                        "POSITION" : 0,
                        "NORMAL" : 1,
                        "TEXCOORD_0" : 2
                    },
                    "indices" : 3,
                    "material" : 0
                },
                {
                    "attributes" : {
                        "POSITION" : 4,
                        "NORMAL" : 5,
                        "TEXCOORD_0" : 6
                    },
                    "indices" : 7,
                    "material" : 1
                },
                {
                    "attributes" : {
                        "POSITION" : 8,
                        "NORMAL" : 9,
                        "TEXCOORD_0" : 10
                    },
                    "indices" : 11,
                    "material" : 2
                },
                {
                    "attributes" : {
                        "POSITION" : 12,
                        "NORMAL" : 13,
                        "TEXCOORD_0" : 14
                    },
                    "indices" : 15,
                    "material" : 3
                }
            ]
        }
    ],
    "accessors" : [
        {
            "bufferView" : 0,
            "componentType" : 5126,
            "count" : 236,
            "max" : [
                0.036351528018713,
                0.1253102570772171,
                0.0790511891245842
            ],
            "min" : [
                -0.036351528018713,
                -6.567221134901047e-06,
                0.01560596376657486
            ],
            "type" : "VEC3"
        },
        {
            "bufferView" : 1,
            "componentType" : 5126,
            "count" : 236,
            "type" : "VEC3"
        },
        {
            "bufferView" : 2,
            "componentType" : 5126,
            "count" : 236,
            "type" : "VEC2"
        },
        {
            "bufferView" : 3,
            "componentType" : 5123,
            "count" : 252,
            "type" : "SCALAR"
        },
        {
            "bufferView" : 4,
            "componentType" : 5126,
            "count" : 188,
            "max" : [
                0.03294278308749199,
                0.11935033649206161,
                0.05778754875063896
            ],
            "min" : [
                -0.03294278308749199,
                0.01925654709339142,
                -0.03685088828206062
            ],
            "type" : "VEC3"
        },
        {
            "bufferView" : 5,
            "componentType" : 5126,
            "count" : 188,
            "type" : "VEC3"
        },
        {
            "bufferView" : 6,
            "componentType" : 5126,
            "count" : 188,
            "type" : "VEC2"
        },
        {
            "bufferView" : 7,
            "componentType" : 5123,
            "count" : 204,
            "type" : "SCALAR"
        },
        {
            "bufferView" : 8,
            "componentType" : 5126,
            "count" : 147,
            "max" : [
                0.029149072244763374,
                0.1397595852613449,
                0.07579944282770157
            ],
            "min" : [
                -0.029149072244763374,
                0.00025498162722215056,
                -0.07701817899942398
            ],
            "type" : "VEC3"
        },
        {
            "bufferView" : 9,
            "componentType" : 5126,
            "count" : 147,
            "type" : "VEC3"
        },
        {
            "bufferView" : 10,
            "componentType" : 5126,
            "count" : 147,
            "type" : "VEC2"
        },
        {
            "bufferView" : 11,
            "componentType" : 5123,
            "count" : 156,
            "type" : "SCALAR"
        },
        {
            "bufferView" : 12,
            "componentType" : 5126,
            "count" : 12,
            "max" : [
                0.008967018686234951,
                0.13414335250854492,
                0.08644743263721466
            ],
            "min" : [
                -0.008967018686234951,
                0.11819251626729965,
                0.06744804978370667
            ],
            "type" : "VEC3"
        },
        {
            "bufferView" : 13,
            "componentType" : 5126,
            "count" : 12,
            "type" : "VEC3"
        },
        {
            "bufferView" : 14,
            "componentType" : 5126,
            "count" : 12,
            "type" : "VEC2"
        },
        {
            "bufferView" : 15,
            "componentType" : 5123,
            "count" : 12,
            "type" : "SCALAR"
        }
    ],
    "bufferViews" : [
        {
            "buffer" : 0,
            "byteLength" : 2832,
            "byteOffset" : 0
        },
        {
            "buffer" : 0,
            "byteLength" : 2832,
            "byteOffset" : 2832
        },
        {
            "buffer" : 0,
            "byteLength" : 1888,
            "byteOffset" : 5664
        },
        {
            "buffer" : 0,
            "byteLength" : 504,
            "byteOffset" : 7552
        },
        {
            "buffer" : 0,
            "byteLength" : 2256,
            "byteOffset" : 8056
        },
        {
            "buffer" : 0,
            "byteLength" : 2256,
            "byteOffset" : 10312
        },
        {
            "buffer" : 0,
            "byteLength" : 1504,
            "byteOffset" : 12568
        },
        {
            "buffer" : 0,
            "byteLength" : 408,
            "byteOffset" : 14072
        },
        {
            "buffer" : 0,
            "byteLength" : 1764,
            "byteOffset" : 14480
        },
        {
            "buffer" : 0,
            "byteLength" : 1764,
            "byteOffset" : 16244
        },
        {
            "buffer" : 0,
            "byteLength" : 1176,
            "byteOffset" : 18008
        },
        {
            "buffer" : 0,
            "byteLength" : 312,
            "byteOffset" : 19184
        },
        {
            "buffer" : 0,
            "byteLength" : 144,
            "byteOffset" : 19496
        },
        {
            "buffer" : 0,
            "byteLength" : 144,
            "byteOffset" : 19640
        },
        {
            "buffer" : 0,
            "byteLength" : 96,
            "byteOffset" : 19784
        },
        {
            "buffer" : 0,
            "byteLength" : 24,
            "byteOffset" : 19880
        }
    ],
    "buffers" : [
        {
            "byteLength" : 19904,
            "uri" : "data:application/octet-stream;base64,"
        }
    ]
}
