{
    "asset" : {
        "generator" : "Khronos glTF Blender I/O v1.3.48",
        "version" : "2.0"
    },
    "extensionsUsed" : [
        "KHR_materials_clearcoat"
    ],
    "scene" : 0,
    "scenes" : [
        {
            "extras" : {
                "glTF2ExportSettings" : {
                    "export_animations" : 1,
                    "export_apply" : 1,
                    "export_cameras" : 1,
                    "export_draco_mesh_compression_enable" : 0,
                    "export_extras" : 1,
                    "export_format" : "GLTF_EMBEDDED",
                    "export_lights" : 1,
                    "export_morph" : 1,
                    "export_skins" : 1,
                    "export_tangents" : 1,
                    "use_selection" : 1
                }
            },
            "name" : "Scene",
            "nodes" : [
                0
            ]
        }
    ],
    "nodes" : [
        {
            "mesh" : 0,
            "name" : "deer",
            "rotation" : [
                0,
                -0.964154839515686,
                0,
                -0.26534050703048706
            ],
            "scale" : [
                0.00018554151756688952,
                0.0001855415030149743,
                0.00018554151756688952
            ]
        }
    ],
    "materials" : [
        {
            "doubleSided" : true,
            "emissiveFactor" : [
                0,
                0,
                0
            ],
            "name" : "Matt black",
            "pbrMetallicRoughness" : {
                "baseColorFactor" : [
                    0.005604651756584644,
                    0.005604651756584644,
                    0.005604651756584644,
                    1
                ],
                "metallicFactor" : 0,
                "roughnessFactor" : 0.4000000059604645
            }
        },
        {
            "alphaMode" : "BLEND",
            "doubleSided" : true,
            "emissiveFactor" : [
                0,
                0,
                0
            ],
            "extensions" : {
                "KHR_materials_clearcoat" : {
                    "clearcoatFactor" : 1,
                    "clearcoatRoughnessFactor" : 0.029999999329447746
                }
            },
            "name" : "glass",
            "pbrMetallicRoughness" : {
                "baseColorFactor" : [
                    0.018848830834031105,
                    0.018848830834031105,
                    0.018848823383450508,
                    1
                ],
                "metallicFactor" : 0.10000000149011612,
                "roughnessFactor" : 0
            }
        },
        {
            "doubleSided" : true,
            "emissiveFactor" : [
                0,
                0,
                0
            ],
            "name" : "blue",
            "pbrMetallicRoughness" : {
                "baseColorFactor" : [
                    0.01850026845932007,
                    0.1247718408703804,
                    0.8307698369026184,
                    1
                ],
                "metallicFactor" : 0.9716312289237976,
                "roughnessFactor" : 0.29361701011657715
            }
        }
    ],
    "meshes" : [
        {
            "name" : "Mesh",
            "primitives" : [
                {
                    "attributes" : {
                        "POSITION" : 0,
                        "NORMAL" : 1,
                        "TEXCOORD_0" : 2
                    },
                    "indices" : 3,
                    "material" : 0
                },
                {
                    "attributes" : {
                        "POSITION" : 4,
                        "NORMAL" : 5,
                        "TEXCOORD_0" : 6
                    },
                    "indices" : 7,
                    "material" : 1
                },
                {
                    "attributes" : {
                        "POSITION" : 8,
                        "NORMAL" : 9,
                        "TEXCOORD_0" : 10
                    },
                    "indices" : 11,
                    "material" : 2
                }
            ]
        }
    ],
    "accessors" : [
        {
            "bufferView" : 0,
            "componentType" : 5126,
            "count" : 4574,
            "max" : [
                369.5182189941406,
                1447.7703857421875,
                568.14501953125
            ],
            "min" : [
                -368.4661560058594,
                0.8878681659698486,
                -662.2122192382812
            ],
            "type" : "VEC3"
        },
        {
            "bufferView" : 1,
            "componentType" : 5126,
            "count" : 4574,
            "type" : "VEC3"
        },
        {
            "bufferView" : 2,
            "componentType" : 5126,
            "count" : 4574,
            "type" : "VEC2"
        },
        {
            "bufferView" : 3,
            "componentType" : 5123,
            "count" : 4965,
            "type" : "SCALAR"
        },
        {
            "bufferView" : 4,
            "componentType" : 5126,
            "count" : 24,
            "max" : [
                -47.25163650512695,
                750.4268188476562,
                -380.0431213378906
            ],
            "min" : [
                -69.52742004394531,
                696.7855834960938,
                -431.2712097167969
            ],
            "type" : "VEC3"
        },
        {
            "bufferView" : 5,
            "componentType" : 5126,
            "count" : 24,
            "type" : "VEC3"
        },
        {
            "bufferView" : 6,
            "componentType" : 5126,
            "count" : 24,
            "type" : "VEC2"
        },
        {
            "bufferView" : 7,
            "componentType" : 5123,
            "count" : 36,
            "type" : "SCALAR"
        },
        {
            "bufferView" : 8,
            "componentType" : 5126,
            "count" : 158,
            "max" : [
                -55.06068801879883,
                738.5736694335938,
                -396.0255126953125
            ],
            "min" : [
                -66.19691467285156,
                719.7367553710938,
                -418.06036376953125
            ],
            "type" : "VEC3"
        },
        {
            "bufferView" : 9,
            "componentType" : 5126,
            "count" : 158,
            "type" : "VEC3"
        },
        {
            "bufferView" : 10,
            "componentType" : 5126,
            "count" : 158,
            "type" : "VEC2"
        },
        {
            "bufferView" : 11,
            "componentType" : 5123,
            "count" : 912,
            "type" : "SCALAR"
        }
    ],
    "bufferViews" : [
        {
            "buffer" : 0,
            "byteLength" : 54888,
            "byteOffset" : 0
        },
        {
            "buffer" : 0,
            "byteLength" : 54888,
            "byteOffset" : 54888
        },
        {
            "buffer" : 0,
            "byteLength" : 36592,
            "byteOffset" : 109776
        },
        {
            "buffer" : 0,
            "byteLength" : 9930,
            "byteOffset" : 146368
        },
        {
            "buffer" : 0,
            "byteLength" : 288,
            "byteOffset" : 156300
        },
        {
            "buffer" : 0,
            "byteLength" : 288,
            "byteOffset" : 156588
        },
        {
            "buffer" : 0,
            "byteLength" : 192,
            "byteOffset" : 156876
        },
        {
            "buffer" : 0,
            "byteLength" : 72,
            "byteOffset" : 157068
        },
        {
            "buffer" : 0,
            "byteLength" : 1896,
            "byteOffset" : 157140
        },
        {
            "buffer" : 0,
            "byteLength" : 1896,
            "byteOffset" : 159036
        },
        {
            "buffer" : 0,
            "byteLength" : 1264,
            "byteOffset" : 160932
        },
        {
            "buffer" : 0,
            "byteLength" : 1824,
            "byteOffset" : 162196
        }
    ],
    "buffers" : [
        {
            "byteLength" : 164020,
            "uri" : "data:application/octet-stream;base64,"
        }
    ]
}
