{
    "asset" : {
        "generator" : "Khronos glTF Blender I/O v1.3.48",
        "version" : "2.0"
    },
    "extensionsUsed" : [
        "KHR_materials_clearcoat"
    ],
    "scene" : 0,
    "scenes" : [
        {
            "extras" : {
                "glTF2ExportSettings" : {
                    "export_apply" : 1,
                    "export_draco_mesh_compression_enable" : 0,
                    "export_extras" : 1,
                    "export_format" : "GLTF_EMBEDDED",
                    "export_image_format" : "JPEG",
                    "use_selection" : 1
                }
            },
            "name" : "Scene",
            "nodes" : [
                0
            ]
        }
    ],
    "nodes" : [
        {
            "mesh" : 0,
            "name" : "Gold_Dog.001",
            "rotation" : [
                0,
                -0.2510976791381836,
                0,
                0.9679617285728455
            ],
            "scale" : [
                0.0012995537836104631,
                0.0012995537836104631,
                0.0012995537836104631
            ],
            "translation" : [
                0.01639634370803833,
                -0.008164320141077042,
                0
            ]
        }
    ],
    "materials" : [
        {
            "doubleSided" : true,
            "emissiveFactor" : [
                0,
                0,
                0
            ],
            "name" : "real matt black",
            "pbrMetallicRoughness" : {
                "baseColorFactor" : [
                    0.005604651756584644,
                    0.005604651756584644,
                    0.005604651756584644,
                    1
                ],
                "metallicFactor" : 0,
                "roughnessFactor" : 0.4000000059604645
            }
        },
        {
            "alphaMode" : "BLEND",
            "doubleSided" : true,
            "emissiveFactor" : [
                0,
                0,
                0
            ],
            "extensions" : {
                "KHR_materials_clearcoat" : {
                    "clearcoatFactor" : 1,
                    "clearcoatRoughnessFactor" : 0.029999999329447746
                }
            },
            "name" : "real glass",
            "pbrMetallicRoughness" : {
                "baseColorFactor" : [
                    0.018848830834031105,
                    0.018848830834031105,
                    0.018848823383450508,
                    1
                ],
                "metallicFactor" : 0.10000000149011612,
                "roughnessFactor" : 0
            }
        },
        {
            "doubleSided" : true,
            "emissiveFactor" : [
                0,
                0,
                0
            ],
            "name" : "blue",
            "pbrMetallicRoughness" : {
                "baseColorFactor" : [
                    0.01850026845932007,
                    0.1247718408703804,
                    0.8307698369026184,
                    1
                ],
                "metallicFactor" : 0.9716312289237976,
                "roughnessFactor" : 0.29361701011657715
            }
        }
    ],
    "meshes" : [
        {
            "name" : "Mesh.003",
            "primitives" : [
                {
                    "attributes" : {
                        "POSITION" : 0,
                        "NORMAL" : 1,
                        "TEXCOORD_0" : 2
                    },
                    "indices" : 3,
                    "material" : 0
                },
                {
                    "attributes" : {
                        "POSITION" : 4,
                        "NORMAL" : 5,
                        "TEXCOORD_0" : 6
                    },
                    "indices" : 7,
                    "material" : 1
                },
                {
                    "attributes" : {
                        "POSITION" : 8,
                        "NORMAL" : 9,
                        "TEXCOORD_0" : 10
                    },
                    "indices" : 11,
                    "material" : 2
                }
            ]
        }
    ],
    "accessors" : [
        {
            "bufferView" : 0,
            "componentType" : 5126,
            "count" : 2055,
            "max" : [
                22.13420295715332,
                131.5947723388672,
                79.02259063720703
            ],
            "min" : [
                -22.091882705688477,
                4.60731315612793,
                -80.8174819946289
            ],
            "type" : "VEC3"
        },
        {
            "bufferView" : 1,
            "componentType" : 5126,
            "count" : 2055,
            "type" : "VEC3"
        },
        {
            "bufferView" : 2,
            "componentType" : 5126,
            "count" : 2055,
            "type" : "VEC2"
        },
        {
            "bufferView" : 3,
            "componentType" : 5123,
            "count" : 2460,
            "type" : "SCALAR"
        },
        {
            "bufferView" : 4,
            "componentType" : 5126,
            "count" : 24,
            "max" : [
                11.844096183776855,
                80.15704345703125,
                45.5112419128418
            ],
            "min" : [
                5.826233863830566,
                73.84317016601562,
                42.690425872802734
            ],
            "type" : "VEC3"
        },
        {
            "bufferView" : 5,
            "componentType" : 5126,
            "count" : 24,
            "type" : "VEC3"
        },
        {
            "bufferView" : 6,
            "componentType" : 5126,
            "count" : 24,
            "type" : "VEC2"
        },
        {
            "bufferView" : 7,
            "componentType" : 5123,
            "count" : 36,
            "type" : "SCALAR"
        },
        {
            "bufferView" : 8,
            "componentType" : 5126,
            "count" : 158,
            "max" : [
                10.77120304107666,
                79.30107116699219,
                44.849945068359375
            ],
            "min" : [
                8.060493469238281,
                76.29549407958984,
                43.36370849609375
            ],
            "type" : "VEC3"
        },
        {
            "bufferView" : 9,
            "componentType" : 5126,
            "count" : 158,
            "type" : "VEC3"
        },
        {
            "bufferView" : 10,
            "componentType" : 5126,
            "count" : 158,
            "type" : "VEC2"
        },
        {
            "bufferView" : 11,
            "componentType" : 5123,
            "count" : 912,
            "type" : "SCALAR"
        }
    ],
    "bufferViews" : [
        {
            "buffer" : 0,
            "byteLength" : 24660,
            "byteOffset" : 0
        },
        {
            "buffer" : 0,
            "byteLength" : 24660,
            "byteOffset" : 24660
        },
        {
            "buffer" : 0,
            "byteLength" : 16440,
            "byteOffset" : 49320
        },
        {
            "buffer" : 0,
            "byteLength" : 4920,
            "byteOffset" : 65760
        },
        {
            "buffer" : 0,
            "byteLength" : 288,
            "byteOffset" : 70680
        },
        {
            "buffer" : 0,
            "byteLength" : 288,
            "byteOffset" : 70968
        },
        {
            "buffer" : 0,
            "byteLength" : 192,
            "byteOffset" : 71256
        },
        {
            "buffer" : 0,
            "byteLength" : 72,
            "byteOffset" : 71448
        },
        {
            "buffer" : 0,
            "byteLength" : 1896,
            "byteOffset" : 71520
        },
        {
            "buffer" : 0,
            "byteLength" : 1896,
            "byteOffset" : 73416
        },
        {
            "buffer" : 0,
            "byteLength" : 1264,
            "byteOffset" : 75312
        },
        {
            "buffer" : 0,
            "byteLength" : 1824,
            "byteOffset" : 76576
        }
    ],
    "buffers" : [
        {
            "byteLength" : 78400,
            "uri" : "data:application/octet-stream;base64,"
        }
    ]
}
