{
    "asset" : {
        "generator" : "Khronos glTF Blender I/O v1.3.48",
        "version" : "2.0"
    },
    "extensionsUsed" : [
        "KHR_materials_clearcoat"
    ],
    "scene" : 0,
    "scenes" : [
        {
            "extras" : {
                "glTF2ExportSettings" : {
                    "export_apply" : 1,
                    "export_draco_mesh_compression_enable" : 0,
                    "export_extras" : 1,
                    "export_format" : "GLTF_EMBEDDED",
                    "export_image_format" : "JPEG",
                    "use_selection" : 1
                }
            },
            "name" : "Scene",
            "nodes" : [
                0
            ]
        }
    ],
    "nodes" : [
        {
            "mesh" : 0,
            "name" : "polybear.001",
            "rotation" : [
                0.5317158699035645,
                0.32226040959358215,
                -0.24106881022453308,
                0.7451928853988647
            ],
            "scale" : [
                0.004711331333965063,
                0.00010469624248798937,
                0.004711331333965063
            ],
            "translation" : [
                0,
                -0.19498099386692047,
                0
            ]
        }
    ],
    "materials" : [
        {
            "alphaMode" : "BLEND",
            "doubleSided" : true,
            "emissiveFactor" : [
                0,
                0,
                0
            ],
            "extensions" : {
                "KHR_materials_clearcoat" : {
                    "clearcoatFactor" : 1,
                    "clearcoatRoughnessFactor" : 0.029999999329447746
                }
            },
            "name" : "glass.003",
            "pbrMetallicRoughness" : {
                "baseColorFactor" : [
                    0.018848830834031105,
                    0.018848830834031105,
                    0.018848823383450508,
                    1
                ],
                "metallicFactor" : 0.10000000149011612,
                "roughnessFactor" : 0
            }
        },
        {
            "doubleSided" : true,
            "emissiveFactor" : [
                0,
                0,
                0
            ],
            "name" : "Matt black.004",
            "pbrMetallicRoughness" : {
                "baseColorFactor" : [
                    0.005604651756584644,
                    0.005604651756584644,
                    0.005604651756584644,
                    1
                ],
                "metallicFactor" : 0,
                "roughnessFactor" : 0.4000000059604645
            }
        },
        {
            "doubleSided" : true,
            "emissiveFactor" : [
                0,
                0,
                0
            ],
            "name" : "blue.002",
            "pbrMetallicRoughness" : {
                "baseColorFactor" : [
                    0.01850026845932007,
                    0.1247718408703804,
                    0.8307698369026184,
                    1
                ],
                "metallicFactor" : 0.9716312289237976,
                "roughnessFactor" : 0.29361701011657715
            }
        }
    ],
    "meshes" : [
        {
            "name" : "Cube.001",
            "primitives" : [
                {
                    "attributes" : {
                        "POSITION" : 0,
                        "NORMAL" : 1,
                        "TEXCOORD_0" : 2
                    },
                    "indices" : 3,
                    "material" : 0
                },
                {
                    "attributes" : {
                        "POSITION" : 4,
                        "NORMAL" : 5,
                        "TEXCOORD_0" : 6
                    },
                    "indices" : 7,
                    "material" : 1
                },
                {
                    "attributes" : {
                        "POSITION" : 8,
                        "NORMAL" : 9,
                        "TEXCOORD_0" : 10
                    },
                    "indices" : 11,
                    "material" : 2
                }
            ]
        }
    ],
    "accessors" : [
        {
            "bufferView" : 0,
            "componentType" : 5126,
            "count" : 24,
            "max" : [
                0.6319496631622314,
                318.919921875,
                -20.035991668701172
            ],
            "min" : [
                -1.3680503368377686,
                316.919921875,
                -22.035991668701172
            ],
            "type" : "VEC3"
        },
        {
            "bufferView" : 1,
            "componentType" : 5126,
            "count" : 24,
            "type" : "VEC3"
        },
        {
            "bufferView" : 2,
            "componentType" : 5126,
            "count" : 24,
            "type" : "VEC2"
        },
        {
            "bufferView" : 3,
            "componentType" : 5123,
            "count" : 36,
            "type" : "SCALAR"
        },
        {
            "bufferView" : 4,
            "componentType" : 5126,
            "count" : 789,
            "max" : [
                40.790897369384766,
                583.5494384765625,
                2.7005081176757812
            ],
            "min" : [
                -25.383556365966797,
                -1749.35498046875,
                -43.95078659057617
            ],
            "type" : "VEC3"
        },
        {
            "bufferView" : 5,
            "componentType" : 5126,
            "count" : 789,
            "type" : "VEC3"
        },
        {
            "bufferView" : 6,
            "componentType" : 5126,
            "count" : 789,
            "type" : "VEC2"
        },
        {
            "bufferView" : 7,
            "componentType" : 5123,
            "count" : 2043,
            "type" : "SCALAR"
        },
        {
            "bufferView" : 8,
            "componentType" : 5126,
            "count" : 158,
            "max" : [
                0.24017441272735596,
                323.16064453125,
                -20.818462371826172
            ],
            "min" : [
                -0.6377825140953064,
                317.919921875,
                -21.765674591064453
            ],
            "type" : "VEC3"
        },
        {
            "bufferView" : 9,
            "componentType" : 5126,
            "count" : 158,
            "type" : "VEC3"
        },
        {
            "bufferView" : 10,
            "componentType" : 5126,
            "count" : 158,
            "type" : "VEC2"
        },
        {
            "bufferView" : 11,
            "componentType" : 5123,
            "count" : 912,
            "type" : "SCALAR"
        }
    ],
    "bufferViews" : [
        {
            "buffer" : 0,
            "byteLength" : 288,
            "byteOffset" : 0
        },
        {
            "buffer" : 0,
            "byteLength" : 288,
            "byteOffset" : 288
        },
        {
            "buffer" : 0,
            "byteLength" : 192,
            "byteOffset" : 576
        },
        {
            "buffer" : 0,
            "byteLength" : 72,
            "byteOffset" : 768
        },
        {
            "buffer" : 0,
            "byteLength" : 9468,
            "byteOffset" : 840
        },
        {
            "buffer" : 0,
            "byteLength" : 9468,
            "byteOffset" : 10308
        },
        {
            "buffer" : 0,
            "byteLength" : 6312,
            "byteOffset" : 19776
        },
        {
            "buffer" : 0,
            "byteLength" : 4086,
            "byteOffset" : 26088
        },
        {
            "buffer" : 0,
            "byteLength" : 1896,
            "byteOffset" : 30176
        },
        {
            "buffer" : 0,
            "byteLength" : 1896,
            "byteOffset" : 32072
        },
        {
            "buffer" : 0,
            "byteLength" : 1264,
            "byteOffset" : 33968
        },
        {
            "buffer" : 0,
            "byteLength" : 1824,
            "byteOffset" : 35232
        }
    ],
    "buffers" : [
        {
            "byteLength" : 37056,
            "uri" : "data:application/octet-stream;base64,"
        }
    ]
}
