{
    "asset" : {
        "generator" : "Khronos glTF Blender I/O v1.3.48",
        "version" : "2.0"
    },
    "extensionsUsed" : [
        "KHR_materials_clearcoat"
    ],
    "scene" : 0,
    "scenes" : [
        {
            "extras" : {
                "glTF2ExportSettings" : {
                    "export_animations" : 1,
                    "export_apply" : 1,
                    "export_cameras" : 1,
                    "export_draco_mesh_compression_enable" : 0,
                    "export_extras" : 1,
                    "export_format" : "GLTF_EMBEDDED",
                    "export_lights" : 1,
                    "export_morph" : 1,
                    "export_skins" : 1,
                    "export_tangents" : 1,
                    "use_selection" : 1
                }
            },
            "name" : "Scene",
            "nodes" : [
                0
            ]
        }
    ],
    "nodes" : [
        {
            "mesh" : 0,
            "name" : "cat",
            "rotation" : [
                0.7071068286895752,
                0,
                0,
                0.7071067094802856
            ],
            "translation" : [
                0,
                -0.0027783073019236326,
                0
            ]
        }
    ],
    "materials" : [
        {
            "doubleSided" : true,
            "emissiveFactor" : [
                0,
                0,
                0
            ],
            "name" : "Matt black",
            "pbrMetallicRoughness" : {
                "baseColorFactor" : [
                    0.005604651756584644,
                    0.005604651756584644,
                    0.005604651756584644,
                    1
                ],
                "metallicFactor" : 0,
                "roughnessFactor" : 0.4000000059604645
            }
        },
        {
            "alphaMode" : "BLEND",
            "doubleSided" : true,
            "emissiveFactor" : [
                0,
                0,
                0
            ],
            "extensions" : {
                "KHR_materials_clearcoat" : {
                    "clearcoatFactor" : 1,
                    "clearcoatRoughnessFactor" : 0.029999999329447746
                }
            },
            "name" : "glass",
            "pbrMetallicRoughness" : {
                "baseColorFactor" : [
                    0.018848830834031105,
                    0.018848830834031105,
                    0.018848823383450508,
                    1
                ],
                "metallicFactor" : 0.10000000149011612,
                "roughnessFactor" : 0
            }
        },
        {
            "doubleSided" : true,
            "emissiveFactor" : [
                0,
                0,
                0
            ],
            "name" : "blue",
            "pbrMetallicRoughness" : {
                "baseColorFactor" : [
                    0.01850026845932007,
                    0.1247718408703804,
                    0.8307698369026184,
                    1
                ],
                "metallicFactor" : 0.9716312289237976,
                "roughnessFactor" : 0.29361701011657715
            }
        }
    ],
    "meshes" : [
        {
            "name" : "cat",
            "primitives" : [
                {
                    "attributes" : {
                        "POSITION" : 0,
                        "NORMAL" : 1,
                        "TEXCOORD_0" : 2
                    },
                    "indices" : 3,
                    "material" : 0
                },
                {
                    "attributes" : {
                        "POSITION" : 4,
                        "NORMAL" : 5,
                        "TEXCOORD_0" : 6
                    },
                    "indices" : 7,
                    "material" : 1
                },
                {
                    "attributes" : {
                        "POSITION" : 8,
                        "NORMAL" : 9,
                        "TEXCOORD_0" : 10
                    },
                    "indices" : 11,
                    "material" : 2
                }
            ]
        }
    ],
    "accessors" : [
        {
            "bufferView" : 0,
            "componentType" : 5126,
            "count" : 2469,
            "max" : [
                0.0654241070151329,
                0.043972890824079514,
                -0.0012625998351722956
            ],
            "min" : [
                -0.049589045345783234,
                -0.056889500468969345,
                -0.18375544250011444
            ],
            "type" : "VEC3"
        },
        {
            "bufferView" : 1,
            "componentType" : 5126,
            "count" : 2469,
            "type" : "VEC3"
        },
        {
            "bufferView" : 2,
            "componentType" : 5126,
            "count" : 2469,
            "type" : "VEC2"
        },
        {
            "bufferView" : 3,
            "componentType" : 5123,
            "count" : 7824,
            "type" : "SCALAR"
        },
        {
            "bufferView" : 4,
            "componentType" : 5126,
            "count" : 70,
            "max" : [
                -0.011127350851893425,
                0.040698472410440445,
                -0.09260008484125137
            ],
            "min" : [
                -0.023029198870062828,
                0.03983261063694954,
                -0.10449793189764023
            ],
            "type" : "VEC3"
        },
        {
            "bufferView" : 5,
            "componentType" : 5126,
            "count" : 70,
            "type" : "VEC3"
        },
        {
            "bufferView" : 6,
            "componentType" : 5126,
            "count" : 70,
            "type" : "VEC2"
        },
        {
            "bufferView" : 7,
            "componentType" : 5123,
            "count" : 132,
            "type" : "SCALAR"
        },
        {
            "bufferView" : 8,
            "componentType" : 5126,
            "count" : 522,
            "max" : [
                -0.013458877801895142,
                0.04117691144347191,
                -0.09722208976745605
            ],
            "min" : [
                -0.018683386966586113,
                0.04020091891288757,
                -0.10288447886705399
            ],
            "type" : "VEC3"
        },
        {
            "bufferView" : 9,
            "componentType" : 5126,
            "count" : 522,
            "type" : "VEC3"
        },
        {
            "bufferView" : 10,
            "componentType" : 5126,
            "count" : 522,
            "type" : "VEC2"
        },
        {
            "bufferView" : 11,
            "componentType" : 5123,
            "count" : 3096,
            "type" : "SCALAR"
        }
    ],
    "bufferViews" : [
        {
            "buffer" : 0,
            "byteLength" : 29628,
            "byteOffset" : 0
        },
        {
            "buffer" : 0,
            "byteLength" : 29628,
            "byteOffset" : 29628
        },
        {
            "buffer" : 0,
            "byteLength" : 19752,
            "byteOffset" : 59256
        },
        {
            "buffer" : 0,
            "byteLength" : 15648,
            "byteOffset" : 79008
        },
        {
            "buffer" : 0,
            "byteLength" : 840,
            "byteOffset" : 94656
        },
        {
            "buffer" : 0,
            "byteLength" : 840,
            "byteOffset" : 95496
        },
        {
            "buffer" : 0,
            "byteLength" : 560,
            "byteOffset" : 96336
        },
        {
            "buffer" : 0,
            "byteLength" : 264,
            "byteOffset" : 96896
        },
        {
            "buffer" : 0,
            "byteLength" : 6264,
            "byteOffset" : 97160
        },
        {
            "buffer" : 0,
            "byteLength" : 6264,
            "byteOffset" : 103424
        },
        {
            "buffer" : 0,
            "byteLength" : 4176,
            "byteOffset" : 109688
        },
        {
            "buffer" : 0,
            "byteLength" : 6192,
            "byteOffset" : 113864
        }
    ],
    "buffers" : [
        {
            "byteLength" : 120056,
            "uri" : "data:application/octet-stream;base64,"
        }
    ]
}
