{
    "asset" : {
        "generator" : "Khronos glTF Blender I/O v1.3.48",
        "version" : "2.0"
    },
    "scene" : 0,
    "scenes" : [
        {
            "name" : "Scene",
            "nodes" : [
                0,
                1,
                2,
                4
            ]
        }
    ],
    "nodes" : [
        {
            "name" : "Light",
            "rotation" : [
                0.16907575726509094,
                0.7558803558349609,
                -0.27217137813568115,
                0.570947527885437
            ],
            "translation" : [
                4.076245307922363,
                5.903861999511719,
                -1.0054539442062378
            ]
        },
        {
            "name" : "Camera",
            "rotation" : [
                0.483536034822464,
                0.33687159419059753,
                -0.20870360732078552,
                0.7804827094078064
            ],
            "translation" : [
                7.358891487121582,
                4.958309173583984,
                6.925790786743164
            ]
        },
        {
            "name" : "CINEMA_4D_Editor",
            "rotation" : [
                0.48359358310699463,
                0.47181424498558044,
                -0.3523206114768982,
                0.6476101875305176
            ],
            "scale" : [
                0.009999999776482582,
                0.009999998845160007,
                0.009999999776482582
            ],
            "translation" : [
                30.253108978271484,
                15.077372550964355,
                10.97061824798584
            ]
        },
        {
            "mesh" : 0,
            "name" : "grp1_2"
        },
        {
            "children" : [
                3
            ],
            "name" : "grp1",
            "rotation" : [
                0,
                -0.7071065902709961,
                0,
                0.7071069478988647
            ],
            "scale" : [
                0.009999999776482582,
                0.009999999776482582,
                0.009999999776482582
            ],
            "translation" : [
                -0.9392502903938293,
                0.05707899481058121,
                0
            ]
        }
    ],
    "meshes" : [
        {
            "name" : "Mesh",
            "primitives" : [
                {
                    "attributes" : {
                        "POSITION" : 0,
                        "NORMAL" : 1,
                        "TEXCOORD_0" : 2
                    },
                    "indices" : 3
                }
            ]
        }
    ],
    "accessors" : [
        {
            "bufferView" : 0,
            "componentType" : 5126,
            "count" : 4493,
            "max" : [
                369.5182189941406,
                1447.7703857421875,
                568.14501953125
            ],
            "min" : [
                -368.4661560058594,
                0.8878681659698486,
                -662.2122192382812
            ],
            "type" : "VEC3"
        },
        {
            "bufferView" : 1,
            "componentType" : 5126,
            "count" : 4493,
            "type" : "VEC3"
        },
        {
            "bufferView" : 2,
            "componentType" : 5126,
            "count" : 4493,
            "type" : "VEC2"
        },
        {
            "bufferView" : 3,
            "componentType" : 5123,
            "count" : 4509,
            "type" : "SCALAR"
        }
    ],
    "bufferViews" : [
        {
            "buffer" : 0,
            "byteLength" : 53916,
            "byteOffset" : 0
        },
        {
            "buffer" : 0,
            "byteLength" : 53916,
            "byteOffset" : 53916
        },
        {
            "buffer" : 0,
            "byteLength" : 35944,
            "byteOffset" : 107832
        },
        {
            "buffer" : 0,
            "byteLength" : 9018,
            "byteOffset" : 143776
        }
    ],
    "buffers" : [
        {
            "byteLength" : 152796,
            "uri" : "data:application/octet-stream;base64,"
        }
    ]
}
