{
    "asset" : {
        "generator" : "Khronos glTF Blender I/O v1.3.48",
        "version" : "2.0"
    },
    "extensionsUsed" : [
        "KHR_materials_clearcoat"
    ],
    "scene" : 0,
    "scenes" : [
        {
            "extras" : {
                "glTF2ExportSettings" : {
                    "export_animations" : 1,
                    "export_apply" : 1,
                    "export_cameras" : 1,
                    "export_draco_mesh_compression_enable" : 0,
                    "export_extras" : 1,
                    "export_format" : "GLTF_EMBEDDED",
                    "export_lights" : 1,
                    "export_morph" : 1,
                    "export_skins" : 1,
                    "export_tangents" : 1,
                    "use_selection" : 1
                }
            },
            "name" : "Scene",
            "nodes" : [
                0
            ]
        }
    ],
    "nodes" : [
        {
            "mesh" : 0,
            "name" : "bird",
            "rotation" : [
                0,
                -0.40679433941841125,
                0,
                0.9135198593139648
            ],
            "translation" : [
                0.03145286440849304,
                0,
                0
            ]
        }
    ],
    "materials" : [
        {
            "doubleSided" : true,
            "emissiveFactor" : [
                0,
                0,
                0
            ],
            "name" : "Matt black",
            "pbrMetallicRoughness" : {
                "baseColorFactor" : [
                    0.005604651756584644,
                    0.005604651756584644,
                    0.005604651756584644,
                    1
                ],
                "metallicFactor" : 0,
                "roughnessFactor" : 0.4000000059604645
            }
        },
        {
            "alphaMode" : "BLEND",
            "doubleSided" : true,
            "emissiveFactor" : [
                0,
                0,
                0
            ],
            "extensions" : {
                "KHR_materials_clearcoat" : {
                    "clearcoatFactor" : 1,
                    "clearcoatRoughnessFactor" : 0.029999999329447746
                }
            },
            "name" : "glass",
            "pbrMetallicRoughness" : {
                "baseColorFactor" : [
                    0.05780275911092758,
                    0.05780275911092758,
                    0.05780274420976639,
                    1
                ],
                "metallicFactor" : 0.10000000149011612,
                "roughnessFactor" : 0
            }
        },
        {
            "doubleSided" : true,
            "emissiveFactor" : [
                0,
                0,
                0
            ],
            "name" : "blue",
            "pbrMetallicRoughness" : {
                "baseColorFactor" : [
                    0.01850026845932007,
                    0.1247718408703804,
                    0.8307698369026184,
                    1
                ],
                "metallicFactor" : 0.9716312289237976,
                "roughnessFactor" : 0.29361701011657715
            }
        }
    ],
    "meshes" : [
        {
            "name" : "bird",
            "primitives" : [
                {
                    "attributes" : {
                        "POSITION" : 0,
                        "NORMAL" : 1,
                        "TEXCOORD_0" : 2
                    },
                    "indices" : 3,
                    "material" : 0
                },
                {
                    "attributes" : {
                        "POSITION" : 4,
                        "NORMAL" : 5,
                        "TEXCOORD_0" : 6
                    },
                    "indices" : 7,
                    "material" : 1
                },
                {
                    "attributes" : {
                        "POSITION" : 8,
                        "NORMAL" : 9,
                        "TEXCOORD_0" : 10
                    },
                    "indices" : 11,
                    "material" : 2
                }
            ]
        }
    ],
    "accessors" : [
        {
            "bufferView" : 0,
            "componentType" : 5126,
            "count" : 677,
            "max" : [
                0.036351528018713,
                0.1397595852613449,
                0.08644743263721466
            ],
            "min" : [
                -0.036351528018713,
                -6.567221134901047e-06,
                -0.07701817899942398
            ],
            "type" : "VEC3"
        },
        {
            "bufferView" : 1,
            "componentType" : 5126,
            "count" : 677,
            "type" : "VEC3"
        },
        {
            "bufferView" : 2,
            "componentType" : 5126,
            "count" : 677,
            "type" : "VEC2"
        },
        {
            "bufferView" : 3,
            "componentType" : 5123,
            "count" : 1080,
            "type" : "SCALAR"
        },
        {
            "bufferView" : 4,
            "componentType" : 5126,
            "count" : 24,
            "max" : [
                0.018717972561717033,
                0.0711999237537384,
                0.06545422971248627
            ],
            "min" : [
                0.0007801298052072525,
                0.05428563430905342,
                0.05282875895500183
            ],
            "type" : "VEC3"
        },
        {
            "bufferView" : 5,
            "componentType" : 5126,
            "count" : 24,
            "type" : "VEC3"
        },
        {
            "bufferView" : 6,
            "componentType" : 5126,
            "count" : 24,
            "type" : "VEC2"
        },
        {
            "bufferView" : 7,
            "componentType" : 5123,
            "count" : 36,
            "type" : "SCALAR"
        },
        {
            "bufferView" : 8,
            "componentType" : 5126,
            "count" : 158,
            "max" : [
                0.014998550526797771,
                0.0678965374827385,
                0.06190919503569603
            ],
            "min" : [
                0.008530322462320328,
                0.059992920607328415,
                0.05613807961344719
            ],
            "type" : "VEC3"
        },
        {
            "bufferView" : 9,
            "componentType" : 5126,
            "count" : 158,
            "type" : "VEC3"
        },
        {
            "bufferView" : 10,
            "componentType" : 5126,
            "count" : 158,
            "type" : "VEC2"
        },
        {
            "bufferView" : 11,
            "componentType" : 5123,
            "count" : 912,
            "type" : "SCALAR"
        }
    ],
    "bufferViews" : [
        {
            "buffer" : 0,
            "byteLength" : 8124,
            "byteOffset" : 0
        },
        {
            "buffer" : 0,
            "byteLength" : 8124,
            "byteOffset" : 8124
        },
        {
            "buffer" : 0,
            "byteLength" : 5416,
            "byteOffset" : 16248
        },
        {
            "buffer" : 0,
            "byteLength" : 2160,
            "byteOffset" : 21664
        },
        {
            "buffer" : 0,
            "byteLength" : 288,
            "byteOffset" : 23824
        },
        {
            "buffer" : 0,
            "byteLength" : 288,
            "byteOffset" : 24112
        },
        {
            "buffer" : 0,
            "byteLength" : 192,
            "byteOffset" : 24400
        },
        {
            "buffer" : 0,
            "byteLength" : 72,
            "byteOffset" : 24592
        },
        {
            "buffer" : 0,
            "byteLength" : 1896,
            "byteOffset" : 24664
        },
        {
            "buffer" : 0,
            "byteLength" : 1896,
            "byteOffset" : 26560
        },
        {
            "buffer" : 0,
            "byteLength" : 1264,
            "byteOffset" : 28456
        },
        {
            "buffer" : 0,
            "byteLength" : 1824,
            "byteOffset" : 29720
        }
    ],
    "buffers" : [
        {
            "byteLength" : 31544,
            "uri" : "data:application/octet-stream;base64,"
        }
    ]
}
