<svg width="16" height="16" viewBox="0 0 16 16" fill="none" xmlns="http://www.w3.org/2000/svg">
<path d="M0 8.38993C0 12.587 3.64308 16 8.12308 16H16C16 16 14.2599 13.2327 11.8833 13.2327C9.50663 13.2327 8.12308 13.2327 8.12308 13.2327C5.26769 13.1866 2.95385 11.0189 2.95385 8.38993V4.51282C2.95385 3.26754 2.50756 2.39736 1.52615 1.42977L0 0V8.38993Z" fill="#111111"/>
<path d="M6 7.38053C6 8.86726 7.2 10 8.68235 10H14L13.1529 9.22124C12.6588 8.72567 12.0392 8.66667 11.3333 8.66667H8.68235C8.04706 8.66667 7.33333 8.0177 7.33333 7.38053V4.66667C7.33333 3.9587 7.27059 3.27434 6.77647 2.77876L6 2V7.38053Z" fill="#2563EB"/>
<path d="M15 3.61947C15 2.13274 13.8 1 12.3176 1L7 1L7.84706 1.77876C8.34118 2.27433 8.96078 2.33333 9.66667 2.33333L12.3176 2.33333C12.9529 2.33333 13.6667 2.9823 13.6667 3.61947L13.6667 6.33333C13.6667 7.0413 13.7294 7.72566 14.2235 8.22124L15 9L15 3.61947Z" fill="#2563EB"/>
</svg>
