<?xml version="1.0" encoding="utf-8"?>
<!-- Generator: Adobe Illustrator 25.2.1, SVG Export Plug-In . SVG Version: 6.00 Build 0)  -->
<svg version="1.1" id="Layer_1" xmlns="http://www.w3.org/2000/svg" xmlns:xlink="http://www.w3.org/1999/xlink" x="0px" y="0px"
	 viewBox="0 0 384 126" style="enable-background:new 0 0 384 126;" xml:space="preserve">
<style type="text/css">
	.st0{fill:#111111;}
	.st1{fill:#2563EB;}
	.st2{fill:#2563EB;stroke:#000000;}
</style>
<g>
	<path class="st0" d="M199.6,47.7c0,25,20.8,45.3,46.5,45.3h45.1c0,0-10-16.5-23.6-16.5c-13.6,0-21.5,0-21.5,0
		c-16.3-0.3-29.6-13.2-29.6-28.8V32.6c0-7.4-2.6-12.6-8.2-18.3l-8.7-8.5V47.7z"/>
	<path d="M382.4,5.1l-8.7,8.5l0,0l0,0c-2.9,2.9-5,5.7-6.4,8.8c-1.4,3.1-2.1,6.4-2.1,10.2v7.7c0,14.9-12.4,27.2-28,27.8
		c-15.5-0.6-28-13-28-27.8v-7.7c0-3.8-0.7-7.1-2.1-10.2c-1.4-3.1-3.5-5.9-6.4-8.8l0,0l0,0L292,5.1l-0.7,0.7h0l0.7-0.7l-1.6-1.6v2.2
		v34.6c0,12.7,5.2,24.1,13.7,32.5c8.5,8.3,20.1,13.6,33,13.7l0,0l0,0c10.4-0.1,20-3.6,27.8-9.2c-0.3,14.3-12.9,26.7-27.4,27.3v0
		l-0.6,0c-6.5,0-10.5,0.6-13.3,1.8c-2.9,1.2-4.5,3-6.4,5.2c-0.8,0.9-1.6,1.8-2.7,2.9c-3.1,3.1-4.8,4.8-5.8,5.8
		c-0.5,0.5-0.8,0.8-0.9,1c-0.1,0.1-0.1,0.1-0.2,0.2c0,0,0,0,0,0c0,0,0,0,0,0c0,0,0,0,0,0c0,0,0,0,0,0c0,0,0,0,0,0v0l-1.4,1.6h2.1h28
		h0.7h0.7l0,0c12.6-0.3,24.1-5.5,32.4-13.7c8.5-8.4,13.8-19.8,13.8-32.5h0l0.2-34.9h0c0-0.5,0-1,0-1.5V5.7V3.5L382.4,5.1z
		 M337,105.6L337,105.6L337,105.6L337,105.6z M365.7,76.8l0.2,0v0L365.7,76.8L365.7,76.8z M337.6,105.6L337.6,105.6L337.6,105.6
		L337.6,105.6z M307.7,121.6L307.7,121.6C307.7,121.5,307.7,121.5,307.7,121.6z M307.9,121.7C307.9,121.7,307.9,121.7,307.9,121.7
		L307.9,121.7z M382.8,76.8L382.8,76.8L382.8,76.8L382.8,76.8z M383,41.8L383,41.8L383,41.8L383,41.8z"/>
	<path class="st0" d="M45.8,5.7H0v92.6c0,6.7,3.1,10.4,8,15.3l8.6,8V91.4h28c25.5,0,47.4-19.7,46.9-43.6C91,24.7,70.7,5.7,45.8,5.7z
		 M44.9,75.8H16.6V21.3h29.1c16.9,0,30.5,13.8,29.1,29.9C73.2,65.5,60.2,75.8,44.9,75.8z"/>
	<path class="st0" d="M145.6,95.8c25.2,0,45.8-20.2,45.8-45c0-24.8-20.5-45-45.8-45s-45.8,20.2-45.8,45
		C99.8,75.6,120.3,95.8,145.6,95.8z M145.6,22.1c16.1,0,29.1,12.8,29.1,28.7s-13,28.7-29.1,28.7s-29.1-12.8-29.1-28.7
		S129.5,22.1,145.6,22.1z"/>
	<path class="st1" d="M232.1,47.3c0,7.5,6.1,13.2,13.7,13.2h27.1l-4.3-3.9c-2.5-2.5-5.7-2.8-9.3-2.8h-13.5c-3.2,0-6.9-3.3-6.9-6.5
		V33.6c0-3.6-0.3-7-2.8-9.5l-4-3.9V47.3z"/>
	<path class="st1" d="M276.9,27.5c0-7.5-6.1-13.2-13.7-13.2h-27.1l4.3,3.9c2.5,2.5,5.7,2.8,9.3,2.8h13.5c3.2,0,6.9,3.3,6.9,6.5v13.7
		c0,3.6,0.3,7,2.8,9.5l4,3.9V27.5z"/>
</g>
<path class="st2" d="M302.7,10.4l77.9,45c3.6,2.1,4.8,6.7,2.7,10.2l-21,36.4c-2.1,3.6-6.7,4.8-10.2,2.7l-77.9-45
	c-3.6-2.1-4.8-6.7-2.7-10.2l21-36.4C294.5,9.6,299.1,8.4,302.7,10.4z"/>
<g>
	<path d="M296.6,34.4c-1-0.6-1.7-1.3-2.2-2.2c-0.5-0.9-0.7-1.9-0.7-3c0-1.1,0.3-2.1,0.9-3.2s1.4-1.8,2.3-2.4
		c0.9-0.6,1.9-0.8,2.9-0.9c1,0,2,0.2,3,0.8c0.8,0.4,1.4,1,1.8,1.6c0.4,0.6,0.6,1.3,0.7,2l3.5-6.1l2.7,1.5l-8.6,15l-2.4-1.4l0.6-1.6
		c-0.6,0.3-1.3,0.4-2,0.4S297.5,35,296.6,34.4z M298.5,32.4c0.9,0.5,1.7,0.6,2.6,0.4s1.6-0.8,2.1-1.7c0.5-0.9,0.7-1.8,0.5-2.7
		c-0.2-0.9-0.8-1.6-1.6-2.1c-0.8-0.5-1.7-0.6-2.6-0.4c-0.9,0.2-1.6,0.8-2.1,1.7c-0.5,0.9-0.7,1.8-0.5,2.7
		C297.1,31.3,297.7,32,298.5,32.4z"/>
	<path d="M310.4,42.4c-1-0.6-1.8-1.3-2.3-2.2c-0.5-0.9-0.8-1.9-0.8-3c0-1.1,0.3-2.2,0.9-3.2c0.6-1.1,1.4-1.9,2.3-2.4
		c0.9-0.5,1.9-0.8,3-0.8c1.1,0,2.1,0.3,3.1,0.9c1,0.6,1.7,1.3,2.3,2.2s0.8,1.9,0.8,3c0,1.1-0.3,2.2-0.9,3.2
		c-0.6,1.1-1.4,1.9-2.3,2.4c-0.9,0.5-1.9,0.8-3,0.8C312.4,43.2,311.3,43,310.4,42.4z M311.7,40.1c0.7,0.4,1.4,0.5,2.3,0.3
		c0.8-0.2,1.5-0.8,2.1-1.9c0.6-1,0.8-1.9,0.6-2.8s-0.7-1.4-1.3-1.8c-0.7-0.4-1.5-0.5-2.3-0.3c-0.8,0.2-1.5,0.9-2.1,1.9
		c-0.6,1-0.8,1.9-0.6,2.8C310.6,39.1,311,39.7,311.7,40.1z"/>
	<path d="M323,49.7c-1-0.6-1.8-1.4-2.4-2.3c-0.5-0.9-0.8-1.9-0.8-3c0-1.1,0.3-2.1,0.9-3.2c0.6-1.1,1.4-1.9,2.3-2.5
		c0.9-0.6,1.9-0.9,3-0.9c1.1,0,2.1,0.3,3.2,0.9c1,0.6,1.8,1.3,2.3,2.2s0.8,1.8,0.8,2.9s-0.3,2-0.8,2.9c-0.1,0.2-0.2,0.3-0.3,0.5
		s-0.2,0.3-0.3,0.5l-7.8-4.5c-0.4,0.8-0.5,1.6-0.2,2.4s0.7,1.3,1.4,1.7c0.5,0.3,1.1,0.5,1.6,0.4s1-0.2,1.4-0.5l2.7,1.6
		c-0.6,0.5-1.2,0.9-2,1.2c-0.8,0.3-1.6,0.4-2.4,0.3S323.9,50.2,323,49.7z M328,41.1c-0.7-0.4-1.3-0.5-2-0.4
		c-0.7,0.1-1.4,0.5-1.9,1.1l5.1,3c0.3-0.7,0.4-1.4,0.2-2.1C329.2,42,328.7,41.4,328,41.1z"/>
	<path d="M334.7,56.4c-0.9-0.5-1.6-1.1-2.2-1.8c-0.5-0.7-0.8-1.4-1-2.2c-0.1-0.8,0-1.5,0.3-2.3l2.7,1.5c-0.1,0.5-0.1,0.9,0.1,1.4
		c0.2,0.5,0.6,0.9,1.2,1.2s1.1,0.5,1.5,0.4c0.4-0.1,0.7-0.3,0.9-0.6c0.3-0.4,0.2-0.9-0.1-1.2c-0.3-0.4-0.7-0.8-1.4-1.4
		c-0.4-0.4-0.8-0.7-1.1-1.1c-0.4-0.4-0.7-0.8-1-1.3c-0.3-0.4-0.4-0.9-0.4-1.4c0-0.5,0.1-1,0.4-1.5c0.5-0.9,1.3-1.5,2.4-1.7
		s2.3,0.1,3.6,0.8c1.2,0.7,2,1.5,2.4,2.5c0.4,1,0.4,2-0.1,3.1l-2.5-1.5c0.3-0.9-0.1-1.6-1.1-2.1c-0.5-0.3-0.9-0.4-1.3-0.4
		s-0.7,0.2-0.8,0.5c-0.2,0.3-0.1,0.7,0.2,1.1c0.3,0.4,0.7,0.9,1.3,1.4c0.6,0.6,1.2,1.1,1.7,1.7s0.8,1.1,0.9,1.7c0.1,0.6,0,1.3-0.4,2
		c-0.4,0.6-0.9,1.1-1.5,1.4c-0.6,0.3-1.4,0.4-2.2,0.3C336.4,57.2,335.6,56.9,334.7,56.4z"/>
	<path d="M341.5,60l5.9-10.3l2.3,1.4l-0.8,1.9c0.7-0.4,1.4-0.6,2.2-0.7c0.8,0,1.6,0.2,2.4,0.7c1.3,0.7,2,1.7,2.3,2.9
		c0.2,1.2-0.1,2.6-1,4.1l-3.4,5.8l-2.7-1.5l3.2-5.6c0.5-0.9,0.7-1.7,0.6-2.3c-0.1-0.7-0.5-1.2-1.3-1.7c-0.7-0.4-1.5-0.5-2.3-0.3
		s-1.4,0.8-2,1.8l-3.1,5.3L341.5,60z"/>
	<path d="M359.1,57.6l4.1-4.5l2.8,1.6l-5.1,3.9L359.1,57.6z"/>
	<path d="M364.2,73.1c-1.1-0.6-1.8-1.4-2.1-2.3c-0.3-0.9-0.1-2,0.6-3.4l2.6-4.5l-1.8-1l1.3-2.2l1.8,1l1.9-2.6l2.3,1.4l-1.6,2.8
		l2.8,1.6l-1.3,2.2l-2.8-1.6l-2.6,4.5c-0.3,0.5-0.4,0.9-0.3,1.2c0.1,0.3,0.4,0.6,1,0.9l1.3,0.7l-1.3,2.3L364.2,73.1z"/>
	<path d="M284.9,55.4c-1-0.6-1.8-1.4-2.4-2.3c-0.5-0.9-0.8-1.9-0.8-3c0-1.1,0.3-2.1,0.9-3.2c0.6-1.1,1.4-1.9,2.3-2.5
		c0.9-0.6,1.9-0.9,3-0.9c1.1,0,2.1,0.3,3.2,0.9c1,0.6,1.8,1.3,2.3,2.2c0.5,0.9,0.8,1.8,0.8,2.9c0,1-0.3,2-0.8,2.9
		c-0.1,0.2-0.2,0.3-0.3,0.5c-0.1,0.2-0.2,0.3-0.3,0.5l-7.8-4.5c-0.4,0.8-0.5,1.6-0.2,2.4c0.2,0.8,0.7,1.3,1.4,1.7
		c0.5,0.3,1.1,0.5,1.6,0.4c0.5,0,1-0.2,1.4-0.5l2.7,1.6c-0.6,0.5-1.2,0.9-2,1.2c-0.8,0.3-1.6,0.4-2.4,0.3S285.7,55.9,284.9,55.4z
		 M289.9,46.8c-0.7-0.4-1.3-0.5-2-0.4c-0.7,0.1-1.4,0.5-1.9,1.1l5.1,3c0.4-0.7,0.4-1.4,0.2-2.1C291,47.7,290.6,47.2,289.9,46.8z"/>
	<path d="M290.8,58.5l6.7-3l-0.8-7.3l2.8,1.6l0.5,5.2l4.7-2.2l2.9,1.7l-6.7,3l0.8,7.3l-2.9-1.7l-0.5-5.2l-4.7,2.1L290.8,58.5z"/>
	<path d="M303.5,65.8l5.9-10.3l2.7,1.5l-5.9,10.3L303.5,65.8z M311.7,54.7c-0.5-0.3-0.8-0.7-0.9-1.1c-0.1-0.5-0.1-0.9,0.2-1.4
		c0.3-0.4,0.6-0.7,1.1-0.8s1,0,1.4,0.3c0.5,0.3,0.8,0.7,1,1.1c0.1,0.5,0.1,0.9-0.2,1.4s-0.6,0.7-1.1,0.8
		C312.7,55,312.2,54.9,311.7,54.7z"/>
	<path d="M313.1,71.7c-0.9-0.5-1.6-1.1-2.2-1.8c-0.5-0.7-0.8-1.4-0.9-2.2c-0.1-0.8,0-1.5,0.3-2.3l2.7,1.5c-0.1,0.5-0.1,0.9,0.1,1.4
		c0.2,0.5,0.6,0.9,1.2,1.2s1.1,0.5,1.5,0.4s0.7-0.3,0.9-0.6c0.3-0.4,0.2-0.9-0.1-1.2c-0.3-0.4-0.7-0.9-1.4-1.4
		c-0.4-0.4-0.8-0.7-1.1-1.1s-0.7-0.8-1-1.3c-0.3-0.4-0.4-0.9-0.4-1.4c0-0.5,0.1-1,0.4-1.5c0.5-0.9,1.3-1.5,2.4-1.7
		c1.1-0.2,2.3,0.1,3.6,0.8c1.2,0.7,2,1.5,2.4,2.5s0.4,2-0.1,3.1l-2.5-1.5c0.3-0.8-0.1-1.6-1.1-2.1c-0.5-0.3-0.9-0.4-1.3-0.4
		c-0.4,0-0.7,0.2-0.8,0.5c-0.2,0.3-0.1,0.7,0.2,1.1s0.7,0.9,1.3,1.4c0.6,0.6,1.2,1.1,1.7,1.7c0.5,0.5,0.8,1.1,0.9,1.7
		c0.1,0.6,0,1.3-0.4,2c-0.4,0.6-0.9,1.1-1.5,1.4s-1.4,0.4-2.2,0.3S314,72.2,313.1,71.7z"/>
	<path d="M324.1,77.7c-1.1-0.6-1.8-1.4-2.1-2.3c-0.3-0.9-0.1-2,0.6-3.4l2.6-4.5l-1.8-1l1.3-2.2l1.8,1l1.9-2.6l2.3,1.4l-1.6,2.8
		l2.8,1.6l-1.3,2.2l-2.8-1.6l-2.6,4.5c-0.3,0.5-0.4,0.9-0.3,1.2c0.1,0.3,0.4,0.6,0.9,0.9l1.3,0.7l-1.3,2.3L324.1,77.7z"/>
	<path d="M329.9,81.3c-0.5-0.3-0.8-0.7-1-1.2s-0.1-0.9,0.2-1.4c0.3-0.4,0.6-0.7,1.1-0.9c0.5-0.1,1,0,1.5,0.2
		c0.5,0.3,0.8,0.7,0.9,1.1c0.1,0.5,0.1,0.9-0.2,1.4c-0.2,0.4-0.6,0.7-1.1,0.8C330.9,81.6,330.4,81.5,329.9,81.3z M331.5,75.8
		l5.5-10.1l2.8,1.6l-6.1,9.8L331.5,75.8z"/>
</g>
</svg>
