<svg width="16" height="16" viewBox="0 0 16 16" fill="none" xmlns="http://www.w3.org/2000/svg">
<path d="M0 11.4318C0 14.024 2.18567 15.9989 4.88562 15.9989H14.5711L13.0283 14.6411C12.1283 13.7771 10.9998 13.6742 9.71409 13.6742H4.88562C3.7285 13.6742 2.42852 12.5427 2.42852 11.4318V6.70016C2.42852 5.46581 2.31424 4.27261 1.41426 3.40856L0 2.05078V11.4318Z" fill="#2563EB"/>
<path d="M16 4.56817C16 1.97603 13.8143 0.00107305 11.1144 0.00107283L1.42886 0.00107202L2.97169 1.35885C3.87167 2.2229 5.00022 2.32576 6.28591 2.32576L11.1144 2.32576C12.2715 2.32576 13.5715 3.45725 13.5715 4.56817L13.5715 9.29984C13.5715 10.5342 13.6858 11.7274 14.5857 12.5914L16 13.9492L16 4.56817Z" fill="#2563EB"/>
</svg>
